<?xml version="1.0" encoding="utf-8"?>
<!-- Generator: Adobe Illustrator 25.2.1, SVG Export Plug-In . SVG Version: 6.00 Build 0)  -->
<svg version="1.1" id="Layer_1" xmlns="http://www.w3.org/2000/svg" xmlns:xlink="http://www.w3.org/1999/xlink" x="0px" y="0px"
	 viewBox="0 0 360 144" style="enable-background:new 0 0 360 144;" xml:space="preserve">
<style type="text/css">
	.st0{fill:#72C3C9;}
	.st1{fill:#3D5A80;}
</style>
<g>
	<path class="st0" d="M180,18.42L180,18.42c1.5,0,2.72,1.22,2.72,2.72v101.73c0,1.5-1.22,2.72-2.72,2.72l0,0
		c-1.5,0-2.72-1.22-2.72-2.72V21.14C177.28,19.64,178.5,18.42,180,18.42z"/>
	<g>
		<g>
			<path class="st1" d="M226.95,48.4h-5.62l-11.71-29.16h7.03l7.57,20.39l7.57-20.39h6.87L226.95,48.4z"/>
			<path class="st1" d="M241.93,48.19V26.02h6.29v22.17H241.93z M245.07,24.29L245.07,24.29c-1.74,0-3.14-1.41-3.14-3.14v0
				c0-1.74,1.41-3.14,3.14-3.14h0c1.74,0,3.14,1.41,3.14,3.14v0C248.21,22.88,246.81,24.29,245.07,24.29z"/>
			<path class="st1" d="M261.9,48.61c-3.1,0-6.58-1.03-9.51-3.35l2.69-4.14c2.4,1.74,4.92,2.65,6.99,2.65
				c1.82,0,2.65-0.66,2.65-1.65v-0.08c0-1.37-2.15-1.82-4.59-2.56c-3.1-0.91-6.62-2.36-6.62-6.66v-0.08c0-4.51,3.64-7.03,8.11-7.03
				c2.81,0,5.87,0.95,8.27,2.56l-2.4,4.34c-2.19-1.28-4.38-2.07-6-2.07c-1.53,0-2.32,0.66-2.32,1.53v0.08
				c0,1.24,2.11,1.82,4.51,2.65c3.1,1.03,6.7,2.52,6.7,6.58v0.08C270.38,46.37,266.7,48.61,261.9,48.61z"/>
			<path class="st1" d="M275.18,48.19V26.02h6.29v22.17H275.18z M278.32,24.29L278.32,24.29c-1.74,0-3.14-1.41-3.14-3.14v0
				c0-1.74,1.41-3.14,3.14-3.14l0,0c1.74,0,3.14,1.41,3.14,3.14v0C281.47,22.88,280.06,24.29,278.32,24.29z"/>
			<path class="st1" d="M298.26,48.69c-6.86,0-11.95-5.09-11.95-11.46v-0.08c0-6.37,5.13-11.54,12.04-11.54
				c6.87,0,11.95,5.09,11.95,11.46v0.08C310.29,43.52,305.17,48.69,298.26,48.69z M304.09,37.15c0-3.27-2.36-6.12-5.83-6.12
				c-3.6,0-5.75,2.77-5.75,6.04v0.08c0,3.27,2.36,6.12,5.83,6.12c3.6,0,5.75-2.77,5.75-6.04V37.15z"/>
			<path class="st1" d="M328.86,48.19V35.83c0-2.98-1.41-4.51-3.81-4.51c-2.4,0-3.93,1.53-3.93,4.51v12.37h-6.29V26.02h6.29v3.14
				c1.45-1.86,3.31-3.56,6.49-3.56c4.76,0,7.53,3.14,7.53,8.23v14.35H328.86z"/>
		</g>
		<g>
			<path class="st1" d="M225.67,87.25c-8.52,0-14.85-6.58-14.85-14.89v-0.08c0-8.23,6.2-14.97,15.1-14.97
				c5.46,0,8.73,1.82,11.41,4.47l-4.05,4.67c-2.23-2.03-4.51-3.27-7.4-3.27c-4.88,0-8.4,4.05-8.4,9.02v0.08c0,4.96,3.43,9.1,8.4,9.1
				c3.31,0,5.34-1.32,7.61-3.39l4.05,4.09C234.56,85.26,231.25,87.25,225.67,87.25z"/>
			<path class="st1" d="M254.95,86.75v-2.4c-1.53,1.7-3.64,2.81-6.7,2.81c-4.18,0-7.61-2.4-7.61-6.78V80.3
				c0-4.84,3.68-7.07,8.93-7.07c2.23,0,3.85,0.37,5.42,0.91v-0.37c0-2.61-1.61-4.05-4.76-4.05c-2.4,0-4.09,0.45-6.12,1.2l-1.57-4.8
				c2.44-1.08,4.84-1.78,8.6-1.78c6.87,0,9.88,3.56,9.88,9.55v12.86H254.95z M255.08,77.82c-1.08-0.5-2.48-0.83-4.01-0.83
				c-2.69,0-4.34,1.08-4.34,3.06v0.08c0,1.7,1.41,2.69,3.43,2.69c2.94,0,4.92-1.61,4.92-3.89V77.82z"/>
			<path class="st1" d="M279.48,70.74c-4.18,0-6.74,2.52-6.74,7.82v8.19h-6.29V64.58h6.29v4.47c1.28-3.06,3.35-5.05,7.07-4.88v6.58
				H279.48z"/>
			<path class="st1" d="M303.72,77.86h-15.43c0.62,2.85,2.61,4.34,5.42,4.34c2.11,0,3.64-0.66,5.38-2.27l3.6,3.18
				c-2.07,2.56-5.05,4.14-9.06,4.14c-6.66,0-11.58-4.67-11.58-11.46v-0.08c0-6.33,4.51-11.54,10.96-11.54
				c7.4,0,10.8,5.75,10.8,12.04v0.08C303.8,76.91,303.76,77.28,303.72,77.86z M293.01,69.21c-2.61,0-4.3,1.86-4.8,4.71h9.47
				C297.31,71.12,295.65,69.21,293.01,69.21z"/>
		</g>
		<g>
			<path class="st1" d="M223.4,125.1H212.1V96.15h11.29c9.1,0,15.39,6.25,15.39,14.39v0.08C238.78,118.77,232.49,125.1,223.4,125.1z
				 M232.12,110.63c0-5.13-3.51-8.73-8.73-8.73h-4.92v17.45h4.92c5.21,0,8.73-3.52,8.73-8.64V110.63z"/>
			<path class="st1" d="M244.08,125.1v-22.17h6.29v22.17H244.08z M247.21,101.2L247.21,101.2c-1.74,0-3.14-1.41-3.14-3.14v0
				c0-1.74,1.41-3.14,3.14-3.14l0,0c1.74,0,3.14,1.41,3.14,3.14v0C250.35,99.79,248.95,101.2,247.21,101.2z"/>
			<path class="st1" d="M269.31,109.1c-4.18,0-6.74,2.52-6.74,7.82v8.19h-6.29v-22.17h6.29v4.47c1.28-3.06,3.35-5.05,7.07-4.88v6.58
				H269.31z"/>
			<path class="st1" d="M293.54,116.21h-15.43c0.62,2.85,2.61,4.34,5.42,4.34c2.11,0,3.64-0.66,5.38-2.27l3.6,3.18
				c-2.07,2.56-5.05,4.14-9.06,4.14c-6.66,0-11.58-4.67-11.58-11.46v-0.08c0-6.33,4.51-11.54,10.96-11.54
				c7.4,0,10.79,5.75,10.79,12.04v0.08C293.63,115.26,293.58,115.63,293.54,116.21z M282.83,107.57c-2.61,0-4.3,1.86-4.8,4.71h9.47
				C287.13,109.47,285.48,107.57,282.83,107.57z"/>
			<path class="st1" d="M308.76,125.6c-6.66,0-11.54-5.13-11.54-11.46v-0.08c0-6.33,4.84-11.54,11.62-11.54
				c4.18,0,6.78,1.41,8.85,3.72l-3.85,4.14c-1.41-1.49-2.81-2.44-5.05-2.44c-3.14,0-5.38,2.77-5.38,6.04v0.08
				c0,3.39,2.19,6.12,5.62,6.12c2.11,0,3.56-0.91,5.09-2.36l3.68,3.72C315.67,123.9,313.19,125.6,308.76,125.6z"/>
			<path class="st1" d="M329.4,125.47c-3.85,0-6.45-1.53-6.45-6.66v-10.51h-2.65v-5.38h2.65v-5.67h6.29v5.67h5.21v5.38h-5.21v9.47
				c0,1.45,0.62,2.15,2.03,2.15c1.16,0,2.19-0.29,3.1-0.79v5.05C333.04,124.98,331.51,125.47,329.4,125.47z"/>
		</g>
	</g>
	<g>
		<path class="st1" d="M125.25,78.61C125.25,78.61,125.25,78.61,125.25,78.61c-10.75,0-20.6-4.92-27.11-12.86L87.61,51.78
			L70.01,28.42c-8.34-11.07-24.09-13.29-35.16-4.94c-11.07,8.34-13.29,24.09-4.94,35.16L56.18,93.5l20.31,26.95
			c5.57,7.4,16.68,7.4,22.26,0l20.31-26.95l11.53-15.3C128.81,78.47,127.03,78.61,125.25,78.61z"/>
		<path class="st0" d="M128.69,52.93c-5.19,1.89-10.93-0.79-12.83-5.98c-1.89-5.19,0.79-10.94,5.98-12.83
			c5.19-1.89,10.94,0.79,12.83,5.98C136.56,45.3,133.88,51.04,128.69,52.93z M125.3,18.45c-6.98,0-13.29,2.85-17.84,7.46
			c-0.78,0.79-1.5,1.62-2.17,2.5l-0.15,0.2L93.88,43.53l11.25,14.92l0.15,0.2c0.67,0.88,1.39,1.72,2.17,2.5
			c4.55,4.6,10.86,7.46,17.84,7.46c13.85,0,25.08-11.23,25.08-25.08S139.15,18.45,125.3,18.45z"/>
	</g>
</g>
</svg>
